<?xml version="1.0" standalone="no"?>

<!DOCTYPE svg PUBLIC "-//W3C//DTD SVG 1.1//EN" "http://www.w3.org/Graphics/SVG/1.1/DTD/svg11.dtd" >

<!-- https://github.com/hikeislife/mean-corona-svg -->
<svg xmlns="http://www.w3.org/2000/svg" xmlns:xlink="http://www.w3.org/1999/xlink" version="1.1" viewBox="-10 0 1034 1024">
  
<g transform="matrix(1 0 0 -1 0 819)">
   

<path fill="currentColor"
d="M282 162c67.6377 -37.5765 72.7371 -51.2212 139 -84.6074c3.6543 -1.41016 19.3203 34.8896 23 33.6074c5.30469 -1.84863 -2.36328 -39.2061 3 -40.7627c41.1081 -20.5326 91.1557 -67.2199 233 -11.2373c-33.416 -12.6162 -98 -59 -134 -50
c-144 47 -231.246 109.434 -264 153zM569 161c65.333 26 141.333 92.667 204 132c-28.6328 -24.0117 -26.21 -113.689 -73 -129c-38 -17 -95.1406 -10.9678 -131 -3zM526 161c-35.8594 -7.96777 -93 -14 -131 3c-46.79 15.3105 -44.3672 104.988 -73 129
c62.667 -39.333 138.667 -106 204 -132zM442 613c-29 2.50488 -58 -6.99609 -87 -18c-11.667 -1.74512 -23.333 21.0068 -35 42l-2 70l-90 -61l58 -17l27 -51c-49.7266 -39.7676 -57.5633 -57.056 -69 -73c-29.4889 3.07261 -50.0579 21.6247 -69 43l-12 57l-72 -110l66 8
l54 -30c23.9383 -7.82375 1.62237 -19.8525 0 -30c-33.4763 -43.4292 -35.7449 -93.6676 -33 -145c-24.3108 -38.3589 -75.5674 -31.1807 -105 -26l-47 37l20 -143l34 51c11.6006 17.5908 66.9092 20.7861 93 26c16.2125 -48.8649 27.4826 -103.868 62 -130
c6.0389 -35.8576 -14.1472 -55.3246 -42 -70l-60 -7l90 -87l7 74l45 42c35.0571 -27.0206 56 -47 113 -65l9 -31c0.332088 -17.3333 1.09611 -34.6667 -9 -52l-54 -49l127 -22l-34 57c-1.34898 26 5.44032 52 15 78c56.7716 -13.1916 110.56 -10.0316 162 6l61 -85
c3.83691 -28 1.57617 -56 -1 -84l95 61c-16.333 0.249023 -32.667 9.54004 -49 19c-13.333 10.668 -44.3333 72.0008 -55 104c-1.00251 16.391 30.0867 28.2691 48 42l48 -44l6 -37c17.6368 9.34671 36.6406 17.3187 44 37l-35 11l-41 50l23 27
c10.9518 3.18306 19.6857 3.83129 28 4c11.4032 0.23139 21.2129 -4.20996 30 -9c21.7207 -14.6387 27.1184 -27 30 -39l14 -44l60 96l-63 -4l-61 40c20.9805 42.2695 45.2196 72.6279 40 140c2.93407 19.0135 23.7019 21.8894 42 27l48 -6l39 -34l-3 124l-54 -48l-74 -5
c2.14989 35.3354 -4.02826 73.6776 -24 117l88 69l83 -8l-80 119c-4.81894 -23.3063 -7.72642 -51.1364 -14 -71c-17.335 -15.1061 -77.6681 -58.5153 -111 -70c-21.3174 37.1768 -53.3574 67.0713 -96 91l32 55l64 22l-98 65l2 -67l-28 -52
c-48 20.3281 -96 27.9948 -144 23c-11.6271 37.7659 -3.58996 79.9424 -5 120l27 49l-108 -2l45 -56v-99c0.999264 -11.3333 -4.00074 -18.6666 -15 -22z" />
  

</g>


</svg>
